<?xml version="1.0" encoding="iso-8859-1"?>
<!-- Uploaded to: SVG Repo, www.svgrepo.com, Generator: SVG Repo Mixer Tools -->
<svg fill="#000000" height="800px" width="800px" version="1.1" id="Layer_1" xmlns="http://www.w3.org/2000/svg" xmlns:xlink="http://www.w3.org/1999/xlink" 
	 viewBox="0 0 500.267 500.267" xml:space="preserve">
<g>
	<g>
		<path d="M481.816,285.867l-122.667-108.8c-2.133-2.133-4.267-4.267-6.4-6.4c12.8-18.133,20.267-38.4,20.267-60.8
			C373.016,49.066,317.549,0,250.349,0S127.682,49.067,127.682,109.867c0,21.333,6.4,42.667,20.267,60.8
			c-5.333,4.267-9.6,9.6-13.867,14.933c-1.067,1.067-3.2,1.067-4.267,2.133L18.883,285.867c-8.533,7.467-9.6,21.333-2.133,29.867
			c4.267,5.333,10.667,7.467,16,7.467c5.333,0,9.6-2.133,13.867-5.333l45.867-40.533c-1.067,9.6-2.133,20.267-2.133,30.933
			c0,62.933,28.8,117.333,72.533,149.333h-19.2c-11.733,0-21.333,9.6-21.333,21.333s9.6,21.333,21.333,21.333h213.333
			c11.733,0,21.333-9.6,21.333-21.333s-9.6-21.333-21.333-21.333h-20.267c44.8-32,73.6-87.467,73.6-150.4
			c0-9.6-1.067-20.267-2.133-29.867l45.867,40.533c4.267,3.2,8.533,5.333,13.867,5.333c5.333,0,11.733-2.133,16-7.467
			C490.349,306.133,490.349,293.334,481.816,285.867z M249.282,443.734c-65.067,0-118.4-60.8-118.4-136.533
			c0-48,22.4-92.8,58.667-117.333c5.333-3.2,9.6-9.6,9.6-16s-2.133-12.8-7.467-17.067c-14.933-12.8-23.467-29.867-23.467-48
			c0-37.333,36.267-68.267,81.067-68.267s81.067,30.933,81.067,68.267c0,18.133-8.533,35.2-23.467,48
			c-5.333,4.267-7.467,10.667-7.467,17.067c1.067,6.4,4.267,12.8,9.6,16c36.267,24.533,58.667,69.333,58.667,117.333
			C367.682,381.867,314.349,443.734,249.282,443.734z"/>
	</g>
</g>
</svg>